<?xml version="1.0" encoding="UTF-8"?>
<svg version="1.1" xmlns="http://www.w3.org/2000/svg" width="64" height="64">
<path d="M0 0 C3.65524228 1.21841409 3.38107832 1.76215663 5 5 C7.03317007 6.73425773 7.03317007 6.73425773 9 8 C9 7.34 9 6.68 9 6 C10.65 6 12.3 6 14 6 C14 5.34 14 4.68 14 4 C15.65 4 17.3 4 19 4 C20.26264601 8.29299643 19.62950412 10.87831311 18 15 C20.85607714 15.1394051 20.85607714 15.1394051 22.9375 14.4375 C25.29664922 13.93707441 26.7285156 14.26988002 29 15 C28.46274105 18.37705625 27.88935377 21.696686 27 25 C28.3303125 24.5359375 28.3303125 24.5359375 29.6875 24.0625 C32.46709155 23.1709329 35.13136375 22.50622993 38 22 C39.35606055 26.44170732 38.59120114 28.7056172 36.5625 32.8125 C36.08941406 33.78832031 35.61632813 34.76414063 35.12890625 35.76953125 C34.75636719 36.50558594 34.38382813 37.24164063 34 38 C36.475 37.505 36.475 37.505 39 37 C39.37125 37.70125 39.7425 38.4025 40.125 39.125 C42.39799899 42.61026512 44.99417684 45.12776898 48 48 C47.34 49.32 46.68 50.64 46 52 C42 52 42 52 40.39453125 50.65234375 C39.87246094 50.08644531 39.35039063 49.52054688 38.8125 48.9375 C36.6035362 46.88700534 35.5874994 46.04209789 32.546875 45.82421875 C30.31584749 46.09432743 28.17959221 46.45633754 26 47 C24.78613064 43.35839192 25.3325305 42.66834531 26.9375 39.3125 C27.31777344 38.50425781 27.69804688 37.69601563 28.08984375 36.86328125 C28.39019531 36.24839844 28.69054687 35.63351563 29 35 C28.13375 35.495 27.2675 35.99 26.375 36.5 C22.89250377 38.0477761 20.75240542 38.26802896 17 38 C15.73735399 33.70700357 16.37049588 31.12168689 18 27 C16.948125 27.37125 15.89625 27.7425 14.8125 28.125 C10.81367786 29.04276246 9.50871784 28.91384609 6 27 C6.309375 26.0925 6.61875 25.185 6.9375 24.25 C7.4634375 22.64125 7.4634375 22.64125 8 21 C8.2475 20.2575 8.495 19.515 8.75 18.75 C8.8325 18.1725 8.915 17.595 9 17 C8.34 16.34 7.68 15.68 7 15 C5.46454016 13.23088323 3.95198239 11.44333922 2.4375 9.65625 C1.34101995 8.3929143 0.18285367 7.18285367 -1 6 C-0.625 2.875 -0.625 2.875 0 0 Z M11 13 C12 15 12 15 12 15 Z M10 15 C11 17 11 17 11 17 Z M16 15 C17 17 17 17 17 17 Z M15 17 C16 19 16 19 16 19 Z M14 19 C15 21 15 21 15 21 Z M19 23 C19.66 23.66 20.32 24.32 21 25 C21 24.34 21 23.68 21 23 C20.34 23 19.68 23 19 23 Z M19 25 C20 27 20 27 20 27 Z M25 25 C26 27 26 27 26 27 Z M24 27 C23.67 27.99 23.34 28.98 23 30 C23.66 30 24.32 30 25 30 C24.67 29.01 24.34 28.02 24 27 Z M43 50 C44 52 44 52 44 52 Z " fill="#129955" transform="translate(9,4)"/>
<path d="M0 0 C1.98 0 3.96 0 6 0 C4.82724882 2.34550236 3.68470916 3.11606958 1.5625 4.625 C0.94503906 5.07101563 0.32757813 5.51703125 -0.30859375 5.9765625 C-2 7 -2 7 -4 7 C-3.67 7.99 -3.34 8.98 -3 10 C-2.01 10.33 -1.02 10.66 0 11 C-3.78187881 12.83691257 -5.94568308 13.15837626 -10 12 C-9.25 6.25 -9.25 6.25 -7 4 C-3.875 4.375 -3.875 4.375 -1 5 C-0.67 3.35 -0.34 1.7 0 0 Z " fill="#0E8A52" transform="translate(35,29)"/>
<path d="M0 0 C0.66 0.33 1.32 0.66 2 1 C-0.33333333 3.33333333 -2.66666667 5.66666667 -5 8 C-4.01 8.33 -3.02 8.66 -2 9 C-3.89404734 12.34243648 -4.94091591 12.97997149 -8.6875 14.25 C-10.3271875 14.62125 -10.3271875 14.62125 -12 15 C-12.66 13.68 -13.32 12.36 -14 11 C-12.02 11 -10.04 11 -8 11 C-7.34 7.7 -6.68 4.4 -6 1 C-5.34 1.33 -4.68 1.66 -4 2 C-3.34 1.67 -2.68 1.34 -2 1 C-1.34 0.67 -0.68 0.34 0 0 Z " fill="#098A49" transform="translate(32,18)"/>
<path d="M0 0 C3 1 3 1 4 2.75 C4.33 3.4925 4.66 4.235 5 5 C5.8353125 6.2684375 5.8353125 6.2684375 6.6875 7.5625 C7.120625 8.366875 7.55375 9.17125 8 10 C7.67 10.99 7.34 11.98 7 13 C5.84481082 12.09515208 4.70114594 11.1755794 3.5625 10.25 C2.92441406 9.73953125 2.28632813 9.2290625 1.62890625 8.703125 C-0.22764145 6.76198639 -0.71299188 5.65091133 -1 3 C-0.67 2.01 -0.34 1.02 0 0 Z " fill="#14A45C" transform="translate(9,4)"/>
<path d="M0 0 C4.2742558 1.5830577 6.26531794 4.50568404 9 8 C4.7257442 6.4169423 2.73468206 3.49431596 0 0 Z " fill="#00674F" transform="translate(7,11)"/>
<path d="M0 0 C4 1 4 1 4 1 Z " fill="#00946A" transform="translate(35,52)"/>
<path d="M0 0 C1 4 1 4 1 4 Z " fill="#008A54" transform="translate(23,37)"/>
<path d="M0 0 C4 1 4 1 4 1 Z " fill="#00B42A" transform="translate(16,33)"/>
<path d="M0 0 C1 4 1 4 1 4 Z " fill="#00942A" transform="translate(39,19)"/>
<path d="M0 0 C4 1 4 1 4 1 Z " fill="#00A925" transform="translate(34,17)"/>
<path d="M0 0 C3 1 3 1 3 1 Z " fill="#006346" transform="translate(39,51)"/>
<path d="" fill="#00BF3F" transform="translate(0,0)"/>
<path d="M0 0 C2 1 2 1 2 1 Z " fill="#00AA55" transform="translate(42,50)"/>
<path d="" fill="#00FF00" transform="translate(0,0)"/>
<path d="" fill="#007F7F" transform="translate(0,0)"/>
<path d="" fill="#007F7F" transform="translate(0,0)"/>
<path d="" fill="#00BF3F" transform="translate(0,0)"/>
<path d="M0 0 C2 1 2 1 2 1 Z " fill="#00FF00" transform="translate(26,43)"/>
<path d="M0 0 C2 1 2 1 2 1 Z " fill="#007F7F" transform="translate(28,42)"/>
<path d="" fill="#00D42A" transform="translate(0,0)"/>
<path d="" fill="#00D42A" transform="translate(0,0)"/>
<path d="" fill="#00D42A" transform="translate(0,0)"/>
<path d="" fill="#00BF3F" transform="translate(0,0)"/>
<path d="" fill="#00BF1F" transform="translate(0,0)"/>
<path d="" fill="#007F7F" transform="translate(0,0)"/>
<path d="" fill="#00D42A" transform="translate(0,0)"/>
<path d="" fill="#007F7F" transform="translate(0,0)"/>
<path d="" fill="#00D42A" transform="translate(0,0)"/>
<path d="" fill="#00FF00" transform="translate(0,0)"/>
<path d="" fill="#00D42A" transform="translate(0,0)"/>
<path d="" fill="#00D4AA" transform="translate(0,0)"/>
<path d="" fill="#00D42A" transform="translate(0,0)"/>
<path d="" fill="#00D42A" transform="translate(0,0)"/>
<path d="" fill="#00D42A" transform="translate(0,0)"/>
<path d="" fill="#00942A" transform="translate(0,0)"/>
<path d="" fill="#00946A" transform="translate(0,0)"/>
<path d="" fill="#00552A" transform="translate(0,0)"/>
<path d="" fill="#003F1F" transform="translate(0,0)"/>
<path d="" fill="#00552A" transform="translate(0,0)"/>
<path d="" fill="#003F3F" transform="translate(0,0)"/>
<path d="M0 0 C2 1 2 1 2 1 Z " fill="#00D46A" transform="translate(21,9)"/>
<path d="" fill="#00FF00" transform="translate(0,0)"/>
<path d="" fill="#007F00" transform="translate(0,0)"/>
<path d="" fill="#007F7F" transform="translate(0,0)"/>
<path d="" fill="#00FF00" transform="translate(0,0)"/>
<path d="" fill="#007F00" transform="translate(0,0)"/>
<path d="" fill="#007F7F" transform="translate(0,0)"/>
<path d="" fill="#007F7F" transform="translate(0,0)"/>
<path d="" fill="#007F7F" transform="translate(0,0)"/>
<path d="" fill="#007F7F" transform="translate(0,0)"/>
<path d="" fill="#007F7F" transform="translate(0,0)"/>
<path d="" fill="#007F7F" transform="translate(0,0)"/>
<path d="" fill="#007F7F" transform="translate(0,0)"/>
<path d="" fill="#007F7F" transform="translate(0,0)"/>
<path d="" fill="#00FF00" transform="translate(0,0)"/>
<path d="" fill="#007F7F" transform="translate(0,0)"/>
<path d="" fill="#00FF00" transform="translate(0,0)"/>
<path d="" fill="#00FF00" transform="translate(0,0)"/>
<path d="" fill="#007F3F" transform="translate(0,0)"/>
<path d="" fill="#007F7F" transform="translate(0,0)"/>
<path d="" fill="#007F7F" transform="translate(0,0)"/>
<path d="" fill="#007F7F" transform="translate(0,0)"/>
<path d="" fill="#007F7F" transform="translate(0,0)"/>
<path d="" fill="#00FF00" transform="translate(0,0)"/>
<path d="" fill="#007F7F" transform="translate(0,0)"/>
<path d="" fill="#007F7F" transform="translate(0,0)"/>
<path d="" fill="#00FFFF" transform="translate(0,0)"/>
<path d="" fill="#00FF00" transform="translate(0,0)"/>
</svg>
